<svg xmlns="http://www.w3.org/2000/svg" xmlns:xlink="http://www.w3.org/1999/xlink" width="1920" zoomAndPan="magnify" viewBox="0 0 1440 809.999993" height="1080" preserveAspectRatio="xMidYMid meet" version="1.0"><defs><clipPath id="99bca34a38"><path d="M 109 4 L 314 4 L 314 797 L 109 797 Z M 109 4 " clip-rule="nonzero"/></clipPath><clipPath id="ca4b009291"><path d="M 1.050781 762.257812 L 110.132812 0.914062 L 404.601562 43.105469 L 295.519531 804.449219 Z M 1.050781 762.257812 " clip-rule="nonzero"/></clipPath><clipPath id="d2a2a64db7"><path d="M 1.050781 762.257812 L 110.132812 0.914062 L 404.601562 43.105469 L 295.519531 804.449219 Z M 1.050781 762.257812 " clip-rule="nonzero"/></clipPath><clipPath id="661e81463b"><path d="M 1.050781 762.257812 L 110.132812 0.914062 L 404.601562 43.105469 L 295.519531 804.449219 Z M 1.050781 762.257812 " clip-rule="nonzero"/></clipPath><clipPath id="65701e054c"><path d="M 292.582031 402.695312 L 302.34375 402.695312 L 302.34375 411.429688 L 292.582031 411.429688 Z M 292.582031 402.695312 " clip-rule="nonzero"/></clipPath><clipPath id="7ace84ba7b"><rect x="0" width="406" y="0" height="805"/></clipPath></defs><g transform="matrix(1, 0, 0, 1, 517, 2)"><g clip-path="url(#7ace84ba7b)"><g clip-path="url(#99bca34a38)"><g clip-path="url(#ca4b009291)"><g clip-path="url(#d2a2a64db7)"><g clip-path="url(#661e81463b)"><path fill="#111111" d="M 112.832031 7.257812 C 112.109375 7.917969 111.496094 8.648438 110.988281 9.433594 C 108.257812 13.644531 108.59375 19.320312 112.140625 23.191406 C 171.476562 87.953125 248.589844 197.730469 278.960938 352.9375 C 310.746094 515.386719 275.230469 652.628906 244.800781 731.59375 C 239.382812 715.261719 232.347656 699.472656 223.816406 684.667969 C 220.707031 679.273438 213.816406 677.421875 208.425781 680.535156 C 206.828125 681.453125 205.542969 682.707031 204.605469 684.152344 C 202.371094 687.59375 202.101562 692.140625 204.289062 695.9375 C 220.136719 723.4375 230.355469 754.65625 233.851562 786.214844 C 234.363281 790.839844 237.65625 794.671875 242.148438 795.871094 C 246.640625 797.066406 251.402344 795.382812 254.148438 791.628906 C 275.730469 762.105469 294.238281 730.207031 309.160156 696.828125 C 311.703125 691.140625 309.15625 684.46875 303.476562 681.925781 C 297.796875 679.386719 291.136719 681.917969 288.585938 687.621094 C 284.035156 697.796875 279.117188 707.816406 273.886719 717.675781 C 302.96875 633.902344 331.128906 502.160156 301.078125 348.59375 C 269.699219 188.242188 190.046875 74.839844 128.753906 7.945312 C 124.546875 3.355469 117.417969 3.046875 112.832031 7.257812 Z M 112.832031 7.257812 " fill-opacity="1" fill-rule="nonzero"/></g></g></g></g><g clip-path="url(#65701e054c)"><path fill="#111111" d="M 302.121094 402.714844 C 300.714844 402.695312 299.292969 403.21875 298.222656 404.144531 C 297.214844 405.015625 296.535156 406.191406 295.875 407.332031 C 295.8125 407.4375 295.75 407.542969 295.6875 407.652344 C 295.074219 408.707031 294.335938 409.878906 293.300781 410.632812 C 293.472656 410.117188 293.554688 409.574219 293.53125 409.027344 C 293.527344 408.90625 293.429688 408.8125 293.308594 408.816406 C 293.191406 408.824219 293.097656 408.925781 293.105469 409.046875 C 293.132812 409.761719 292.964844 410.476562 292.625 411.105469 C 292.585938 411.175781 292.589844 411.261719 292.632812 411.328125 C 292.671875 411.390625 292.742188 411.429688 292.8125 411.429688 C 292.820312 411.429688 292.824219 411.429688 292.828125 411.429688 C 293.5625 411.371094 294.28125 411.195312 294.960938 410.910156 C 295.070312 410.863281 295.125 410.734375 295.078125 410.625 C 295.03125 410.511719 294.90625 410.457031 294.796875 410.503906 C 294.453125 410.652344 294.097656 410.765625 293.734375 410.847656 C 294.742188 410.046875 295.457031 408.90625 296.058594 407.875 C 296.121094 407.769531 296.183594 407.660156 296.246094 407.554688 C 296.886719 406.449219 297.546875 405.304688 298.5 404.480469 C 299.496094 403.621094 300.8125 403.136719 302.117188 403.152344 C 302.234375 403.15625 302.332031 403.058594 302.332031 402.9375 C 302.335938 402.816406 302.242188 402.714844 302.121094 402.714844 Z M 302.121094 402.714844 " fill-opacity="1" fill-rule="nonzero"/></g></g></g></svg>