<?xml version="1.0" encoding="iso-8859-1"?>
<!-- Uploaded to: SVG Repo, www.svgrepo.com, Generator: SVG Repo Mixer Tools -->
<svg version="1.1" id="Layer_1" xmlns="http://www.w3.org/2000/svg" xmlns:xlink="http://www.w3.org/1999/xlink" 
	 viewBox="0 0 512 512" xml:space="preserve">
<path style="fill:#AAAAAA;" d="M380.216,512H131.784c-4.408,0-8.016-3.608-8.016-8.016V8.016c0-4.408,3.608-8.016,8.016-8.016
	h248.432c4.408,0,8.016,3.608,8.016,8.016v495.976C388.232,508.392,384.624,512,380.216,512z"/>
<path style="fill:#FFFFFF;" d="M363.744,495.08H148.256c-6.608,0-12.024-5.408-12.024-12.024V28.936
	c0-6.608,5.408-12.024,12.024-12.024h215.488c6.608,0,12.024,5.408,12.024,12.024v454.12
	C375.76,489.672,370.352,495.08,363.744,495.08z"/>
<rect x="153.6" y="34.808" width="204.8" height="371.28"/>
<circle style="fill:#FFFFFF;" cx="249.68" cy="392.4" r="3.536"/>
<g style="opacity:0.25;">
	<circle style="fill:#FFFFFF;" cx="262.32" cy="392.4" r="3.536"/>
</g>
<g>
	<path style="fill:#FFFFFF;" d="M225.84,45.928h-0.032l-1.712,0.92l-0.256-1.008l2.144-1.16h1.136v9.84h-1.28V45.928z"/>
	<path style="fill:#FFFFFF;" d="M230.736,54.528v-0.816l1.056-1.024c2.512-2.384,3.648-3.656,3.656-5.144c0-1-0.48-1.92-1.944-1.92
		c-0.896,0-1.632,0.448-2.096,0.824l-0.416-0.936c0.68-0.576,1.648-1,2.784-1c2.112,0,3.008,1.456,3.008,2.864
		c0,1.816-1.312,3.28-3.384,5.28l-0.792,0.728v0.032h4.416v1.104L230.736,54.528L230.736,54.528z"/>
	<path style="fill:#FFFFFF;" d="M238.64,48.408c0-0.56,0.376-0.96,0.904-0.96s0.872,0.392,0.888,0.96
		c0,0.528-0.344,0.936-0.904,0.936C238.992,49.344,238.64,48.944,238.64,48.408z M238.64,53.752c0-0.56,0.376-0.96,0.904-0.96
		s0.872,0.392,0.888,0.96c0,0.528-0.344,0.936-0.904,0.936C238.992,54.688,238.64,54.288,238.64,53.752z"/>
	<path style="fill:#FFFFFF;" d="M248.208,49.504c0,3.344-1.24,5.184-3.416,5.184c-1.928,0-3.232-1.8-3.264-5.056
		c0-3.304,1.424-5.128,3.424-5.128C247.032,44.512,248.208,46.368,248.208,49.504z M242.872,49.648c0,2.56,0.792,4.008,2,4.008
		c1.368,0,2.008-1.584,2.008-4.104c0-2.416-0.616-4.008-2-4.008C243.72,45.544,242.872,46.976,242.872,49.648z"/>
	<path style="fill:#FFFFFF;" d="M256,49.504c0,3.344-1.24,5.184-3.416,5.184c-1.928,0-3.232-1.8-3.264-5.056
		c0-3.304,1.424-5.128,3.424-5.128C254.824,44.512,256,46.368,256,49.504z M250.656,49.648c0,2.56,0.792,4.008,2,4.008
		c1.368,0,2.008-1.584,2.008-4.104c0-2.416-0.616-4.008-2-4.008C251.512,45.544,250.656,46.976,250.656,49.648z"/>
	<path style="fill:#FFFFFF;" d="M260.944,44.44c0.632-0.104,1.472-0.2,2.528-0.2c1.304,0,2.264,0.304,2.864,0.856
		c0.56,0.48,0.888,1.216,0.888,2.136s-0.272,1.648-0.784,2.176c-0.696,0.736-1.832,1.112-3.112,1.112
		c-0.392,0-0.76-0.008-1.064-0.08v4.08h-1.32C260.944,54.52,260.944,44.44,260.944,44.44z M262.264,49.36
		c0.28,0.08,0.648,0.112,1.08,0.112c1.592,0,2.56-0.768,2.56-2.184c0-1.344-0.944-1.992-2.408-1.992c-0.576,0-1.008,0.04-1.24,0.104
		L262.264,49.36L262.264,49.36z"/>
	<path style="fill:#FFFFFF;" d="M277.448,50.048c-0.072-1.424-0.168-3.136-0.16-4.408h-0.04c-0.344,1.2-0.768,2.472-1.288,3.872
		l-1.8,4.952h-0.992l-1.656-4.856c-0.48-1.44-0.896-2.76-1.176-3.968h-0.032c-0.032,1.272-0.104,2.976-0.2,4.512l-0.264,4.376
		h-1.264l0.72-10.2h1.68l1.736,4.928c0.424,1.264,0.768,2.376,1.032,3.44h0.04c0.264-1.032,0.624-2.144,1.072-3.44l1.824-4.928h1.68
		l0.632,10.2h-1.28L277.448,50.048z"/>
	<rect x="326.968" y="43.544" style="fill:#FFFFFF;" width="19.88" height="9.96"/>
	<rect x="328.72" y="45.256" style="fill:#FFFFFF;" width="16.408" height="6.536"/>
	<rect x="346.88" y="46.568" style="fill:#FFFFFF;" width="1.952" height="3.92"/>
</g>
<circle style="fill:#DB2B42;" cx="207.424" cy="106.856" r="36.728"/>
<g>
	<circle style="fill:#CCCBCA;" cx="304.56" cy="106.856" r="36.728"/>
	<circle style="fill:#CCCBCA;" cx="207.424" cy="212.608" r="36.728"/>
</g>
<g>
	<circle style="fill:#E6E5E5;" cx="304.56" cy="212.608" r="36.728"/>
	<circle style="fill:#E6E5E5;" cx="207.424" cy="318.368" r="36.728"/>
</g>
<circle style="fill:#DB2B42;" cx="304.56" cy="318.368" r="36.728"/>
<g>
	<path style="fill:#FFFFFF;" d="M198.304,157.792c-0.08-1.592-0.176-3.504-0.168-4.928h-0.056c-0.384,1.344-0.864,2.76-1.44,4.336
		l-2.008,5.528h-1.112l-1.84-5.424c-0.544-1.616-1-3.08-1.32-4.44h-0.032c-0.04,1.424-0.128,3.336-0.232,5.04l-0.304,4.896h-1.408
		l0.8-11.408h1.872l1.944,5.52c0.472,1.392,0.864,2.656,1.144,3.832h0.056c0.288-1.144,0.696-2.392,1.208-3.832l2.032-5.52h1.872
		l0.712,11.408h-1.44L198.304,157.792z"/>
	<path style="fill:#FFFFFF;" d="M209.168,160.568c0,0.856,0.008,1.592,0.064,2.24h-1.32l-0.08-1.336H207.8
		c-0.384,0.656-1.248,1.52-2.712,1.52c-1.28,0-2.824-0.712-2.824-3.592v-4.792h1.488v4.544c0,1.56,0.472,2.608,1.824,2.608
		c1,0,1.696-0.688,1.968-1.352c0.08-0.216,0.136-0.488,0.136-0.76v-5.032h1.488V160.568z"/>
	<path style="fill:#FFFFFF;" d="M211.432,161.288c0.44,0.28,1.216,0.592,1.968,0.592c1.08,0,1.584-0.544,1.584-1.216
		c0-0.72-0.416-1.104-1.52-1.512c-1.472-0.52-2.168-1.336-2.168-2.32c0-1.312,1.072-2.392,2.824-2.392
		c0.832,0,1.56,0.232,2.024,0.496l-0.376,1.08c-0.32-0.2-0.92-0.472-1.68-0.472c-0.872,0-1.368,0.512-1.368,1.112
		c0,0.68,0.488,0.976,1.552,1.384c1.424,0.544,2.16,1.264,2.16,2.48c0,1.44-1.128,2.448-3.072,2.448
		c-0.896,0-1.72-0.216-2.304-0.552L211.432,161.288z"/>
	<path style="fill:#FFFFFF;" d="M220,152.312c0.008,0.496-0.352,0.904-0.944,0.904c-0.52,0-0.896-0.408-0.896-0.904
		c0-0.528,0.384-0.936,0.928-0.936C219.648,151.376,220,151.784,220,152.312z M218.344,162.808v-8.2h1.488v8.2H218.344z"/>
	<path style="fill:#FFFFFF;" d="M228.136,162.504c-0.384,0.2-1.248,0.472-2.352,0.472c-2.472,0-4.072-1.68-4.072-4.176
		c0-2.52,1.72-4.352,4.392-4.352c0.888,0,1.656,0.216,2.072,0.424l-0.344,1.144c-0.352-0.2-0.92-0.384-1.728-0.384
		c-1.872,0-2.896,1.384-2.896,3.096c0,1.896,1.216,3.072,2.84,3.072c0.856,0,1.408-0.232,1.832-0.416L228.136,162.504z"/>
	<path style="fill:#FFFFFF;" d="M285.08,162.808l-3.728-11.408h1.592l1.784,5.616c0.488,1.544,0.92,2.928,1.216,4.272h0.032
		c0.32-1.32,0.792-2.76,1.304-4.248l1.928-5.632h1.584l-4.08,11.408L285.08,162.808L285.08,162.808z"/>
	<path style="fill:#FFFFFF;" d="M293.36,152.312c0.008,0.496-0.352,0.904-0.944,0.904c-0.52,0-0.896-0.408-0.896-0.904
		c0-0.528,0.384-0.936,0.928-0.936C293,151.376,293.36,151.784,293.36,152.312z M291.704,162.808v-8.2h1.488v8.2H291.704z"/>
	<path style="fill:#FFFFFF;" d="M302.736,150.784v9.904c0,0.728,0.008,1.552,0.064,2.112h-1.336l-0.072-1.424h-0.032
		c-0.456,0.92-1.448,1.616-2.792,1.616c-1.976,0-3.504-1.68-3.504-4.168c-0.024-2.72,1.68-4.392,3.664-4.392
		c1.264,0,2.104,0.592,2.48,1.248h0.032v-4.896C301.24,150.784,302.736,150.784,302.736,150.784z M301.24,157.952
		c0-0.184-0.024-0.448-0.072-0.632c-0.216-0.936-1.032-1.72-2.144-1.72c-1.544,0-2.456,1.352-2.456,3.168
		c0,1.656,0.816,3.032,2.424,3.032c1,0,1.904-0.664,2.176-1.784c0.056-0.208,0.072-0.408,0.072-0.648V157.952z"/>
	<path style="fill:#FFFFFF;" d="M306.032,158.984c0.04,2.008,1.32,2.84,2.816,2.84c1.064,0,1.712-0.184,2.272-0.424l0.248,1.064
		c-0.52,0.24-1.416,0.512-2.728,0.512c-2.52,0-4.024-1.656-4.024-4.128s1.456-4.416,3.84-4.416c2.664,0,3.384,2.344,3.384,3.856
		c0,0.304-0.04,0.544-0.056,0.696C311.784,158.984,306.032,158.984,306.032,158.984z M310.408,157.912
		c0.008-0.944-0.392-2.416-2.072-2.416c-1.504,0-2.168,1.384-2.28,2.416H310.408z"/>
	<path style="fill:#FFFFFF;" d="M321.096,158.64c0,3.032-2.096,4.352-4.072,4.352c-2.216,0-3.928-1.624-3.928-4.216
		c0-2.736,1.792-4.344,4.064-4.344C319.512,154.432,321.096,156.136,321.096,158.64z M314.6,158.72c0,1.8,1.04,3.16,2.488,3.16
		c1.424,0,2.488-1.344,2.488-3.184c0-1.384-0.688-3.144-2.456-3.144C315.368,155.544,314.6,157.168,314.6,158.72z"/>
	<path style="fill:#FFFFFF;" d="M322.784,161.288c0.44,0.28,1.216,0.592,1.968,0.592c1.08,0,1.584-0.544,1.584-1.216
		c0-0.72-0.416-1.104-1.52-1.512c-1.472-0.52-2.168-1.336-2.168-2.32c0-1.312,1.072-2.392,2.824-2.392
		c0.832,0,1.56,0.232,2.024,0.496l-0.376,1.08c-0.32-0.2-0.92-0.472-1.68-0.472c-0.872,0-1.368,0.512-1.368,1.112
		c0,0.68,0.488,0.976,1.552,1.384c1.424,0.544,2.16,1.264,2.16,2.48c0,1.44-1.128,2.448-3.072,2.448
		c-0.896,0-1.72-0.216-2.304-0.552L322.784,161.288z"/>
	<path style="fill:#FFFFFF;" d="M275.032,258.376c0.72-0.128,1.648-0.216,2.832-0.216c1.456,0,2.52,0.336,3.2,0.944
		c0.624,0.544,1,1.368,1,2.384c0,1.032-0.304,1.84-0.888,2.44c-0.768,0.824-2.04,1.248-3.48,1.248c-0.448,0-0.856-0.024-1.184-0.104
		v4.576h-1.48V258.376z M276.512,263.88c0.32,0.08,0.728,0.112,1.216,0.112c1.784,0,2.864-0.864,2.864-2.44
		c0-1.504-1.072-2.232-2.696-2.232c-0.648,0-1.136,0.056-1.384,0.112V263.88z"/>
	<path style="fill:#FFFFFF;" d="M290.984,265.48c0,3.032-2.096,4.352-4.072,4.352c-2.216,0-3.928-1.624-3.928-4.216
		c0-2.736,1.792-4.344,4.064-4.344C289.4,261.272,290.984,262.984,290.984,265.48z M284.48,265.568c0,1.8,1.032,3.16,2.488,3.16
		c1.424,0,2.488-1.344,2.488-3.184c0-1.384-0.696-3.144-2.448-3.144C285.24,262.392,284.48,264.016,284.48,265.568z"/>
	<path style="fill:#FFFFFF;" d="M299.944,257.632v9.904c0,0.728,0.008,1.552,0.064,2.112h-1.336l-0.072-1.416h-0.032
		c-0.456,0.904-1.448,1.608-2.792,1.608c-1.976,0-3.504-1.68-3.504-4.168c-0.024-2.728,1.68-4.392,3.664-4.392
		c1.264,0,2.104,0.584,2.48,1.248h0.032v-4.896H299.944z M298.448,264.792c0-0.184-0.024-0.448-0.072-0.624
		c-0.216-0.96-1.032-1.728-2.144-1.728c-1.544,0-2.456,1.352-2.456,3.168c0,1.656,0.816,3.024,2.424,3.024
		c1,0,1.904-0.656,2.176-1.768c0.056-0.208,0.072-0.408,0.072-0.648V264.792z"/>
	<path style="fill:#FFFFFF;" d="M308.256,269.344c-0.384,0.2-1.248,0.472-2.352,0.472c-2.472,0-4.072-1.68-4.072-4.176
		c0-2.52,1.728-4.352,4.392-4.352c0.888,0,1.664,0.216,2.064,0.424l-0.336,1.144c-0.352-0.2-0.92-0.384-1.728-0.384
		c-1.872,0-2.896,1.384-2.896,3.096c0,1.896,1.216,3.064,2.84,3.064c0.856,0,1.408-0.216,1.832-0.392L308.256,269.344z"/>
	<path style="fill:#FFFFFF;" d="M314.536,269.648l-0.112-1.032h-0.056c-0.456,0.648-1.336,1.216-2.512,1.216
		c-1.656,0-2.496-1.168-2.496-2.352c0-1.976,1.76-3.064,4.928-3.04v-0.176c0-0.68-0.184-1.896-1.864-1.896
		c-0.76,0-1.552,0.24-2.136,0.616l-0.336-0.976c0.68-0.448,1.656-0.728,2.688-0.728c2.512,0,3.112,1.712,3.112,3.344v3.072
		c0,0.712,0.032,1.392,0.136,1.96L314.536,269.648L314.536,269.648z M314.312,265.472c-1.624-0.04-3.472,0.248-3.472,1.84
		c0,0.96,0.648,1.416,1.408,1.416c1.064,0,1.736-0.68,1.976-1.368c0.056-0.16,0.08-0.32,0.08-0.48L314.312,265.472L314.312,265.472z
		"/>
	<path style="fill:#FFFFFF;" d="M317.96,268.128c0.44,0.28,1.216,0.592,1.968,0.592c1.08,0,1.584-0.544,1.584-1.216
		c0-0.72-0.416-1.104-1.52-1.512c-1.472-0.52-2.168-1.336-2.168-2.32c0-1.312,1.064-2.392,2.832-2.392
		c0.824,0,1.552,0.232,2.008,0.496l-0.376,1.08c-0.32-0.2-0.92-0.472-1.68-0.472c-0.872,0-1.368,0.512-1.368,1.112
		c0,0.68,0.488,0.976,1.552,1.384c1.424,0.544,2.144,1.264,2.144,2.48c0,1.44-1.112,2.448-3.064,2.448
		c-0.896,0-1.72-0.216-2.304-0.552L317.96,268.128z"/>
	<path style="fill:#FFFFFF;" d="M326.672,259.104v2.352h2.136v1.128h-2.136V267c0,1.024,0.28,1.592,1.112,1.592
		c0.392,0,0.68-0.056,0.864-0.096l0.072,1.112c-0.288,0.112-0.752,0.2-1.32,0.2c-0.696,0-1.264-0.216-1.616-0.624
		c-0.416-0.44-0.576-1.168-0.576-2.136v-4.472h-1.272v-1.128h1.272v-1.968L326.672,259.104z"/>
	<path style="fill:#FFFFFF;" d="M330.272,268.128c0.44,0.28,1.216,0.592,1.968,0.592c1.08,0,1.584-0.544,1.584-1.216
		c0-0.72-0.416-1.104-1.52-1.512c-1.472-0.52-2.168-1.336-2.168-2.32c0-1.312,1.064-2.392,2.832-2.392
		c0.824,0,1.552,0.232,2.008,0.496l-0.376,1.08c-0.32-0.2-0.92-0.472-1.68-0.472c-0.872,0-1.368,0.512-1.368,1.112
		c0,0.68,0.488,0.976,1.552,1.384c1.424,0.544,2.144,1.264,2.144,2.48c0,1.44-1.112,2.448-3.064,2.448
		c-0.896,0-1.72-0.216-2.304-0.552L330.272,268.128z"/>
	<path style="fill:#FFFFFF;" d="M184.992,258.24h6.136v1.232h-4.664v3.792h4.312v1.216h-4.312v5.168h-1.472V258.24z"/>
	<path style="fill:#FFFFFF;" d="M194.4,259.152c0.008,0.512-0.352,0.92-0.944,0.92c-0.52,0-0.896-0.408-0.896-0.92
		c0-0.52,0.384-0.928,0.928-0.928C194.048,258.224,194.4,258.632,194.4,259.152z M192.744,269.648v-8.184h1.488v8.184H192.744z"/>
	<path style="fill:#FFFFFF;" d="M198.504,259.104v2.352h2.136v1.128h-2.136V267c0,1.024,0.28,1.592,1.112,1.592
		c0.392,0,0.68-0.056,0.864-0.096l0.072,1.112c-0.288,0.112-0.752,0.2-1.32,0.2c-0.696,0-1.264-0.216-1.616-0.624
		c-0.416-0.44-0.576-1.168-0.576-2.136v-4.472h-1.272v-1.128h1.272v-1.968L198.504,259.104z"/>
	<path style="fill:#FFFFFF;" d="M202.312,263.672c0-0.84-0.024-1.544-0.072-2.208h1.32l0.08,1.352h0.032
		c0.408-0.784,1.352-1.544,2.712-1.544c1.136,0,2.896,0.68,2.896,3.48v4.896h-1.488v-4.72c0-1.32-0.488-2.424-1.896-2.424
		c-0.976,0-1.736,0.696-2,1.52c-0.064,0.184-0.096,0.448-0.096,0.696v4.928h-1.488V263.672z"/>
	<path style="fill:#FFFFFF;" d="M212.536,265.824c0.04,2.008,1.32,2.84,2.816,2.84c1.064,0,1.712-0.184,2.272-0.424l0.248,1.072
		c-0.52,0.232-1.416,0.496-2.728,0.496c-2.52,0-4.024-1.656-4.024-4.128c0-2.48,1.456-4.416,3.84-4.416
		c2.664,0,3.384,2.352,3.384,3.856c0,0.304-0.04,0.544-0.056,0.696L212.536,265.824L212.536,265.824z M216.912,264.752
		c0.008-0.944-0.392-2.416-2.072-2.416c-1.504,0-2.168,1.384-2.28,2.416H216.912z"/>
	<path style="fill:#FFFFFF;" d="M219.984,268.128c0.44,0.28,1.216,0.592,1.968,0.592c1.08,0,1.584-0.544,1.584-1.216
		c0-0.72-0.416-1.104-1.52-1.512c-1.472-0.52-2.168-1.336-2.168-2.32c0-1.312,1.064-2.392,2.832-2.392
		c0.824,0,1.552,0.232,2.008,0.496l-0.376,1.08c-0.32-0.2-0.92-0.472-1.68-0.472c-0.872,0-1.368,0.512-1.368,1.112
		c0,0.68,0.488,0.976,1.552,1.384c1.424,0.544,2.144,1.264,2.144,2.48c0,1.44-1.112,2.448-3.064,2.448
		c-0.896,0-1.72-0.216-2.304-0.552L219.984,268.128z"/>
	<path style="fill:#FFFFFF;" d="M226.688,268.128c0.44,0.28,1.216,0.592,1.968,0.592c1.08,0,1.584-0.544,1.584-1.216
		c0-0.72-0.416-1.104-1.52-1.512c-1.472-0.52-2.168-1.336-2.168-2.32c0-1.312,1.064-2.392,2.832-2.392
		c0.824,0,1.552,0.232,2.008,0.496l-0.376,1.08c-0.32-0.2-0.92-0.472-1.68-0.472c-0.872,0-1.368,0.512-1.368,1.112
		c0,0.68,0.488,0.976,1.552,1.384c1.424,0.544,2.144,1.264,2.144,2.48c0,1.44-1.112,2.448-3.064,2.448
		c-0.896,0-1.72-0.216-2.304-0.552L226.688,268.128z"/>
	<path style="fill:#FFFFFF;" d="M184.76,365.232c0.712-0.128,1.632-0.216,2.824-0.216c1.456,0,2.52,0.336,3.2,0.944
		c0.624,0.544,1,1.368,1,2.384c0,1.032-0.304,1.84-0.888,2.44c-0.768,0.824-2.04,1.248-3.48,1.248c-0.448,0-0.856-0.024-1.184-0.104
		v4.576h-1.472V365.232z M186.232,370.736c0.32,0.08,0.728,0.112,1.216,0.112c1.768,0,2.856-0.864,2.856-2.44
		c0-1.504-1.064-2.232-2.688-2.232c-0.648,0-1.136,0.056-1.384,0.112V370.736z"/>
	<path style="fill:#FFFFFF;" d="M193.64,364.48h1.488v5.12h0.032c0.24-0.424,0.608-0.792,1.064-1.056
		c0.44-0.248,0.968-0.416,1.52-0.416c1.104,0,2.864,0.68,2.864,3.504v4.872h-1.488v-4.712c0-1.312-0.488-2.44-1.896-2.44
		c-0.96,0-1.728,0.68-2,1.488c-0.08,0.208-0.096,0.424-0.096,0.72v4.936h-1.488V364.48z"/>
	<path style="fill:#FFFFFF;" d="M210.44,372.336c0,3.032-2.096,4.352-4.072,4.352c-2.216,0-3.928-1.624-3.928-4.216
		c0-2.736,1.792-4.344,4.064-4.344C208.856,368.128,210.44,369.84,210.44,372.336z M203.944,372.424c0,1.8,1.032,3.16,2.488,3.16
		c1.424,0,2.488-1.344,2.488-3.184c0-1.384-0.696-3.144-2.448-3.144C204.704,369.24,203.944,370.872,203.944,372.424z"/>
	<path style="fill:#FFFFFF;" d="M214.12,365.96v2.352h2.136v1.128h-2.136v4.416c0,1.024,0.288,1.592,1.112,1.592
		c0.384,0,0.68-0.056,0.864-0.096l0.064,1.112c-0.28,0.112-0.736,0.2-1.312,0.2c-0.696,0-1.248-0.216-1.616-0.624
		c-0.416-0.44-0.576-1.168-0.576-2.136v-4.464h-1.272v-1.128h1.272v-1.968L214.12,365.96z"/>
	<path style="fill:#FFFFFF;" d="M225.232,372.336c0,3.032-2.096,4.352-4.072,4.352c-2.216,0-3.928-1.624-3.928-4.216
		c0-2.736,1.792-4.344,4.064-4.344C223.648,368.128,225.232,369.84,225.232,372.336z M218.736,372.424c0,1.8,1.032,3.16,2.488,3.16
		c1.424,0,2.488-1.344,2.488-3.184c0-1.384-0.696-3.144-2.448-3.144C219.496,369.24,218.736,370.872,218.736,372.424z"/>
	<path style="fill:#FFFFFF;" d="M226.92,374.984c0.44,0.28,1.216,0.592,1.968,0.592c1.08,0,1.584-0.544,1.584-1.216
		c0-0.72-0.416-1.104-1.52-1.512c-1.472-0.52-2.168-1.336-2.168-2.32c0-1.312,1.064-2.392,2.832-2.392
		c0.824,0,1.552,0.232,2.008,0.496l-0.376,1.08c-0.32-0.2-0.92-0.472-1.68-0.472c-0.872,0-1.368,0.512-1.368,1.112
		c0,0.68,0.488,0.976,1.552,1.384c1.424,0.544,2.144,1.264,2.144,2.48c0,1.44-1.112,2.448-3.064,2.448
		c-0.896,0-1.72-0.216-2.304-0.552L226.92,374.984z"/>
	<path style="fill:#FFFFFF;" d="M286.016,365.24c0.752-0.144,1.816-0.232,2.832-0.232c1.576,0,2.584,0.28,3.304,0.928
		c0.576,0.512,0.896,1.288,0.896,2.168c0,1.512-0.944,2.496-2.16,2.92v0.04c0.888,0.312,1.408,1.128,1.68,2.304
		c0.376,1.592,0.648,2.696,0.888,3.136h-1.52c-0.184-0.32-0.448-1.304-0.768-2.728c-0.336-1.576-0.936-2.168-2.28-2.208h-1.384
		v4.936h-1.48L286.016,365.24L286.016,365.24z M287.496,370.44H289c1.584,0,2.584-0.864,2.584-2.168
		c0-1.472-1.072-2.112-2.624-2.128c-0.72,0-1.216,0.064-1.456,0.128v4.168H287.496z"/>
	<path style="fill:#FFFFFF;" d="M299.816,376.504l-0.112-1.032h-0.056c-0.456,0.648-1.344,1.216-2.512,1.216
		c-1.656,0-2.496-1.168-2.496-2.352c0-1.976,1.76-3.064,4.928-3.04v-0.176c0-0.68-0.184-1.896-1.864-1.896
		c-0.76,0-1.56,0.24-2.136,0.616l-0.336-0.976c0.68-0.448,1.656-0.728,2.688-0.728c2.512,0,3.112,1.712,3.112,3.344v3.072
		c0,0.712,0.032,1.392,0.136,1.96L299.816,376.504L299.816,376.504z M299.6,372.328c-1.624-0.04-3.472,0.248-3.472,1.84
		c0,0.96,0.648,1.416,1.408,1.416c1.064,0,1.736-0.68,1.976-1.368c0.056-0.16,0.08-0.32,0.08-0.48L299.6,372.328L299.6,372.328z"/>
	<path style="fill:#FFFFFF;" d="M310.512,364.48v9.904c0,0.728,0.024,1.552,0.064,2.112h-1.336l-0.064-1.416h-0.04
		c-0.456,0.904-1.456,1.608-2.792,1.608c-1.976,0-3.504-1.68-3.504-4.168c-0.024-2.728,1.68-4.392,3.664-4.392
		c1.264,0,2.104,0.584,2.48,1.248h0.032v-4.896H310.512z M309.024,371.648c0-0.184-0.024-0.448-0.072-0.624
		c-0.216-0.96-1.032-1.728-2.144-1.728c-1.544,0-2.456,1.352-2.456,3.168c0,1.656,0.816,3.024,2.424,3.024
		c1,0,1.904-0.656,2.176-1.768c0.056-0.208,0.072-0.408,0.072-0.648V371.648z"/>
	<path style="fill:#FFFFFF;" d="M314.648,366c0.008,0.512-0.352,0.92-0.944,0.92c-0.52,0-0.896-0.408-0.896-0.92
		c0-0.52,0.384-0.928,0.928-0.928C314.296,365.08,314.648,365.48,314.648,366z M312.992,376.504v-8.184h1.488v8.184H312.992z"/>
	<path style="fill:#FFFFFF;" d="M324.368,372.336c0,3.032-2.096,4.352-4.072,4.352c-2.216,0-3.928-1.624-3.928-4.216
		c0-2.736,1.792-4.344,4.064-4.344C322.784,368.128,324.368,369.84,324.368,372.336z M317.872,372.424c0,1.8,1.04,3.16,2.488,3.16
		c1.424,0,2.488-1.344,2.488-3.184c0-1.384-0.688-3.144-2.456-3.144C318.64,369.24,317.872,370.872,317.872,372.424z"/>
</g>
<g style="opacity:0.25;">
	<path style="fill:#FFFFFF;" d="M207.424,281.632c-20.288,0-36.728,16.448-36.728,36.728c0,0.144,0.04,0.28,0.04,0.424
		c10.424,2.896,41.496,9.72,73.376,0.016c0-0.152,0.04-0.288,0.04-0.432C244.152,298.08,227.712,281.632,207.424,281.632z"/>
</g>
<g style="opacity:0.25;">
	<path style="fill:#FFFFFF;" d="M304.576,281.632c-20.288,0-36.728,16.448-36.728,36.728c0,0.144,0.04,0.28,0.04,0.424
		c10.424,2.896,41.496,9.72,73.376,0.016c0-0.152,0.04-0.288,0.04-0.432C341.304,298.08,324.864,281.632,304.576,281.632z"/>
</g>
<g style="opacity:0.25;">
	<path style="fill:#FFFFFF;" d="M207.424,175.816c-20.288,0-36.728,16.448-36.728,36.728c0,0.144,0.04,0.28,0.04,0.424
		c10.424,2.896,41.496,9.72,73.376,0.016c0-0.152,0.04-0.288,0.04-0.432C244.152,192.264,227.712,175.816,207.424,175.816z"/>
</g>
<g style="opacity:0.25;">
	<path style="fill:#FFFFFF;" d="M304.576,175.816c-20.288,0-36.728,16.448-36.728,36.728c0,0.144,0.04,0.28,0.04,0.424
		c10.424,2.896,41.496,9.72,73.376,0.016c0-0.152,0.04-0.288,0.04-0.432C341.304,192.264,324.864,175.816,304.576,175.816z"/>
</g>
<g style="opacity:0.25;">
	<path style="fill:#FFFFFF;" d="M207.424,70.128c-20.288,0-36.728,16.448-36.728,36.728c0,0.144,0.04,0.28,0.04,0.424
		c10.424,2.896,41.496,9.72,73.376,0.016c0-0.152,0.04-0.288,0.04-0.432C244.152,86.568,227.712,70.128,207.424,70.128z"/>
</g>
<g style="opacity:0.25;">
	<path style="fill:#FFFFFF;" d="M304.576,70.128c-20.288,0-36.728,16.448-36.728,36.728c0,0.144,0.04,0.28,0.04,0.424
		c10.424,2.896,41.496,9.72,73.376,0.016c0-0.152,0.04-0.288,0.04-0.432C341.304,86.568,324.864,70.128,304.576,70.128z"/>
</g>
<circle style="fill:#AAAAAA;" cx="255.664" cy="450.48" r="30.224"/>
<path style="fill:#FFFFFF;" d="M255.672,464.288c-7.592,0-13.768-6.176-13.768-13.768s6.176-13.768,13.768-13.768
	s13.768,6.176,13.768,13.768S263.264,464.288,255.672,464.288z M255.672,439.408c-6.128,0-11.104,4.976-11.104,11.104
	s4.976,11.104,11.104,11.104c6.128,0,11.104-4.976,11.104-11.104S261.792,439.408,255.672,439.408z"/>
</svg>